<svg xmlns="http://www.w3.org/2000/svg" id="a" viewBox="0 0 2449 2645"><defs><style>.ac,.al,.bl,.cm,.cw,.da,.dj,.dq,.i,.k,.p{stroke-width:0}.i{fill:#fc780c}.k{fill:#fefefe}.p{fill:#fc780b}.ac{fill:#952d0b}.al{fill:#161721}.bl{fill:#fff}.cm{fill:#fefefd}.cw{fill:#fefdfc}.da{fill:#f08e6a}.dj{fill:#fffffe}.dq{fill:#ff8c0a}</style></defs><path fill="#47525c" stroke-width="0" d="M955 339h-46L279 789l-165 583 855-3-14-1030z"/><path d="m708 2533-17-8c-214-97-399-231-539-421-15-20-30-39-38-63 79 98 166 190 265 268 75 58 154 109 241 147 51 25 104 47 159 63 73 26 148 45 224 58 154 32 313 33 466 2 93-18 184-42 271-80l100-47 26-13c200-120 368-275 500-468l-1 5c-55 99-122 191-205 269a1609 1609 0 0 1-409 294l-18 8-11 4-9 3-7 3-19 8-16 6-38 12-26 8c-111 29-223 49-337 52l-59 2c-53-6-106-10-159-17-53-6-104-18-156-31l-36-10-46-14-32-11-8-3-6-2c-15-5-36-13-60-24Z" class="dj"/><path fill="#ff880b" stroke-width="0" d="M1920 2205c-93 71-195 131-304 178h-1c-302 114-641 83-919-84-123-72-235-159-342-253-33-28-60-63-91-95-6-7-14-12-21-19 20 34 49 60 76 88 23 24 54 40 71 69 45 77 96 150 144 225 30 46 61 92 87 142 51 25 104 47 159 63 73 26 148 45 224 58 154 32 313 33 466 2 93-18 184-42 271-80l100-47 39-70c97-178 119-218 111-225-6-4-22 12-70 48Z"/><path fill="#7c6c5f" stroke-width="0" d="m1270 2643-59 2 59-2Z"/><path d="M2419 1327c1 147-44 283-96 418l-67 161c-1 2 0 10-5 7-4-1-9-6-7-12 30-104-9-183-91-245-3-2-5-3-2-7 71-123 81-258 66-396a957 957 0 0 0-502-750c-3-1-9-1-4-8 26-40 45-84 59-130 2-7 5-9 12-5 145 68 264 168 365 291 119 146 206 309 251 493 15 60 21 121 21 183Zm-1365 13-29-5c-39-8-77-17-116-23-140-22-248 34-300 152-32 69-35 138-3 208 4 7-2 9-5 12l-27 21-7-2-5-10a282 282 0 0 1 61-334c54-50 117-76 190-78 107 3 213 17 318 37h3c-1-1-2-3-4-3-95-49-143-134-177-229-9-23-13-47-10-72v-5l-5 4-35 55-4 5-1-4c6-61 27-127 91-152l16 4c27 4 48 18 63 41l-18 29c-15 16-14 38-19 57l-7 38 29-23c16-11 30-26 51-30-4 69 32 121 73 172l3 2-1-5c-15-32-28-65-31-100 0-3-4-9 4-5 99 40 175 120 212 220 10 24 14 49 14 75l-1 7-4-7c-23-67-66-119-122-161l-6-3 2 5c46 62 82 129 102 204l-26-21c-20-21-40-42-61-61-58-54-130-90-179-153l-3-1v4c15 55 45 98 94 126s103 50 147 86l27 24c56 71 74 147 38 233-11 26-28 49-51 68l-10 6c-20-1-39-4-57-12-83-35-142-93-179-175-5-20-11-40-9-61 1-17 1-39 19-47 19-8 28 12 39 22 37 34 78 59 129 62l14-2-4-14-38-55a297 297 0 0 0-185-126Zm147 284-2-2c-29-26-57-55-80-87l-2-2v4c17 37 42 69 80 88l4 1v-2Z" class="bl"/><path fill="#4a555f" stroke-width="0" d="M2163 1347v11l-9-12c-49-75-114-122-208-120-17 0-34 2-51 6-12 3-16 1-21-10-27-59-69-108-109-159-45-58-73-128-125-182-5-6 5-9 9-11 40-21 81-39 123-52l8-5-7-4c-54-25-72-77-93-126l-15-33c-11-19-17-34 8-49 16-8 2-24 1-37-1-4-2-9 0-11 4-4 8 0 12 2a906 906 0 0 1 466 655c8 44 9 89 11 137Z"/><path fill="#fd850b" stroke-width="0" d="M1575 1677c44-41 79-87 99-144 7-17 11-35 10-54-2-48-43-75-87-57-24 9-44 24-59 46l-4 4 1-5c12-33 26-65 51-91 35-35 64-43 109-22 57 26 109 58 157 99-3 6 3 9 5 12 10 14 21 27 30 41 52 75 37 159-38 212-68 47-146 63-225 77l-37-3c-38-4-66-26-92-52l-7-5 10-2c28-1 71-32 77-56Zm225-238h-1l3 6c31 44 56 91 74 142l4 6v-8c-14-53-43-98-75-141l-5-5Z"/><path d="m1006 491 8-6c6 4 10 1 14-3 14-14 27-29 42-41 31-24 72-26 104-48l9-4c28-17 25-42 15-68 134-3 244 41 318 159 3 6 7 10 11 15v-19l-1-8 6 5 42 48c3 4 5 6 0 9-26 17-28 45-31 72-6-3-5 4-6 6-11 22-20 44-30 67-2-10-6-20-7-30-15-94-52-176-139-226l-7-3c1 2 1 4 3 5 70 52 75 123 61 200-12 2 2 21-17 21-24 0-24-15-28-29l-3-7-1 8c-26-107-130-147-220-84l-43 29c-6-6-10 0-14 2-3 2-6 4-2 8-2 8 4 3 5 3l31-2c-35 18-71 10-106 1-24-6-29-41-57-46-3-1-5-6-8-9 3-2 7-6 10-6 19 4 26-14 41-19Z" class="dq"/><path d="M1472 913c4 5 3 9-2 12-15 9-12 19-5 32 13 22 27 43 54 50l4 4c-1 1-3 3-5 3-28 13-57 19-87 11-55-16-103-43-137-91-13-18-31-28-50-36-8-3-11-1-11 8 1 32 15 58 35 82l6 9-11-1c-51-13-99-38-154-39l-3-2 3-3c21-18 44-30 70-36 7-2 8-2 3-8-14-15-29-30-34-51l-1-3-3 3c-10 35-38 31-64 29-51-4-96-30-145-43-55-15-110-10-165 1l-8 1 3-4c54-57 95-123 136-188 19-32 36-65 72-82 1 1 2 3 1 4-42 71-60 155-118 218l-3 6 7-2 44-29c38-23 76-44 123-30 32 14 58 37 82 62 4 4 8 9 14 7 27-6 55-7 81-18 36-7 77 21 94 68 9 26 15 53 22 79l5 7c1-2 3-4 2-6-2-41 6-80 19-119l2-1 25 13c38 22 66 55 99 83Zm-65 78-1-2-55-29-3 1 3 3 52 27 4 1v-1Z" class="bl"/><path d="M696 2299c-123-72-235-159-342-253-33-28-60-63-91-95l-21-19c-41-46-81-93-87-158-7-70 58-179 124-204 3-1 4-2 6 2 1 3 3 6-1 9l-17 18c-33 35-60 73-71 121-5 17-5 33-3 50 6 50 25 95 55 136 5 5 3-1 3-2l-3-31v-7l6 5 44 56 9 12 60 66c44 44 92 84 142 120 250 205 531 318 859 280 167-20 318-83 456-177 30-21 61-28 96-23-93 71-195 131-304 178a1043 1043 0 0 1-920-84Z" class="dj"/><path d="M1027 738c-47-14-85 7-123 30l-44 29-7 2 3-6c58-63 76-147 118-218 1-1 0-3-1-4-38-5-72-27-92-59-7-12-11-25-12-39 9 5 18 11 27 14 36 13 73 11 110 4-15 5-22 23-41 19-3 0-7 4-10 6 3 3 5 8 8 9 28 5 33 40 57 46 35 9 71 17 106-1l15-3c20-4 35 11 52 13 37 3 63 24 93 39 10 4 21 33 38 6l12 21c-2 9-4 19 12 13 17-10 21-27 21-45l1-8 3 7c4 14 4 29 28 29 19 0 5-19 17-21-4 20-6 40-11 60-3 15-9 31-13 46l-20 37c-12 23-6 52 11 61 19 11 38 21 53 39 6 6 13 15 23 11 33-14 64 0 95 7 2 0 6 4 6 5-10 17 7 7 9 8 8 2 16 2 25 2-42 0-85-5-124 16-33-28-61-61-99-83l-25-13c-10-25-30-32-55-34l-65-4c-47 2-91-6-128-36-16-13-35-21-54-25h-14l11 5 28 11 8 6-10 4-42-6Zm335 31-2-8c-7-45-19-87-59-116 10-13-7-13-10-14-9-4-17-19-29-6-27-6-55-10-78-24a80 80 0 0 0-74-4l-31 11-9 4 11 1c44 0 87 5 118 40 18 21 38 37 63 49 23 38 57 69 85 103 2 5 4 2 4 0 2-12 17-21 11-36Zm-2-103c7-4 15-3 17-12l-5-4-17 12 5 4Z" class="p"/><path fill="#fd700c" stroke-width="0" d="M1268 1736c-83-35-142-93-179-175l-251-74 3-14c-9-1-13 6-19 10-21 39-33 79-31 123 1 25-8 51 5 75 68 80 164 98 261 110 80 10 159 7 234-24 12-5 23-13 34-19-20-1-39-4-57-12Z"/><path fill="#ff8d0a" stroke-width="0" d="M1089 1561c-4 12 1 23 5 34v9l-6-2c-16-27-41-27-67-23-22 4-41-6-62-9-17-3-35-3-52-10-26-10-29-38-47-55-7-6-20-6-22-18 31-33 60-68 98-93 21-15 45-28 67-41l51-13c79 17 139 61 185 126l38 55 4 14-14 2c-51-3-92-28-129-62-11-10-20-30-39-22-18 8-18 30-19 47-2 21 4 41 9 61Z"/><path fill="#ff920a" stroke-width="0" d="M1802 1355c-45-25-94-36-145-36 107-23 213-65 326-47 26 4 50 15 71 31-69-9-139-20-209-12l-7 2 7 2c18 3 37 5 55 9 55 10 112 17 153 62 65 72 72 146 25 253l-2-10c-4-38-12-75-27-110l-3-6v7c12 44 10 85-16 124l-19 27-2-33v-8l-7-37-10 35v2l-3 5-2-6c3-106-56-175-137-230-15-10-30-21-48-24Z"/><path d="M2117 1751c-3-14-11-25-18-37-6-12 11-18 15-28 3-6 7 1 8 3 41 38 83 75 92 135 7 43-16 77-34 113l-2 2 1-4 11-58v-5l-4 3c-66 126-175 209-286 291l-26 19 14-31c8-18 20-32 36-43l58-46c26-18 47-41 68-64l2-4-4 3c-27 23-36 21-53-10l-16-33-14-46c-1-51 13-97 43-138 5-7 8-15 12-22 6-4 8 2 11 4 27 22 46 49 65 78 7 2 4-4 4-6l-1-51c0-3 1-7 6-6 4 0 4 3 5 6l16 112c0 4 3 8 4 12 2-4 5-7 6-11 7-21 14-42 19-64 5-21-19-66-38-74Z" class="bl"/><path fill="#fe800b" stroke-width="0" d="M609 1464c52-118 160-174 300-152 39 6 77 15 116 23-76-2-148 9-212 54l-18 18c7-4 13-8 20-10 10-4 21-6 31-9l-21 19c-10 9-19 19-25 32l-1 4 4-3 43-31 6-3-4 5c-44 32-74 75-96 124l-6 8c-7 11-11 25-23 32v-55l-4 12c-4 20-6 40-2 60l10 45c-58 23-105-9-120-80-6-31-4-62 2-93Z"/><path fill="#fb720b" stroke-width="0" d="M196 1720c11-48 38-86 71-121 39 36 81 68 128 94l52 31c69 43 82 95 32 179l-53-55-7-5 1 9 7 58c1 4-1 7-2 10-3-1-7-2-9-4-27-17-40-43-50-71v-37c0-9-1-12-12-11-67 4-124-14-158-77Z"/><path fill="#fb760b" stroke-width="0" d="M1425 1964c-6 46-29 82-68 107l-91 3h-6l3-5 59-62 4-4-5 2c-18 12-37 17-57 20-52 7-104-28-105-72 11-40 46-40 77-46l-16 9c7 2 16 5 23 4 18-3 36-7 53-12 59-15 92-1 123 51l6 5Z"/><path fill="#617b83" stroke-width="0" d="m876 2305-6-1c-110-43-211-102-303-176-3-3-6-4 0-7 37-17 69-40 98-67 4-4 7-6 11-1 42 48 93 83 146 117 9 6 14 13 15 24 3 39 16 74 36 106l3 5Z"/><path fill="#ac3609" stroke-width="0" d="M1056 2233c-5 6-1 11 1 16l35 95c3 7 3 10-5 10-39-2-77-11-111-29-39-20-36-55-33-90 2-40-1-79-32-109 1-7-7-11-4-20 8-22 16-43 46-25h1l6 2c15 10 35 11 48 26l25 52q3 6 5 3l1-7c-1 27 9 51 17 76Z"/><path d="M1596 897c-9 0-17 0-25-2-2-1-19 9-9-8 0-1-4-5-6-5-31-7-62-21-95-7-10 4-17-5-23-11-15-18-34-28-53-39-17-9-23-38-11-61l20-37 58-122 3-6 4 6c10 22 12 46 14 71-9 16-11 33-1 48l46 60 82 113h-4Z" class="dq"/><path fill="#fd7a0b" stroke-width="0" d="M623 1359c-23 23-42 50-59 78-15 12-29 26-46 36-49 32-113 4-117-50l11-32c8-12 17-24 24-37 10-15 22-30 24-49 24-18 50-32 79-42-6 10-18 11-25 18-5 6-19 8-9 21 15 22 30 43 58 51 7 2 14 8 18 14 5 7 9 6 16 4 9-3 14-16 26-12Z"/><path fill="#d8490a" stroke-width="0" d="M401 1423c4 54 68 82 117 50 17-10 31-24 46-36-43 85-41 171-2 256l5 10c-14-1-27-5-39-13-59-36-95-90-124-151-11-38-12-77-3-116Z"/><path d="M1543 602c3-27 5-55 31-72 5-3 3-5 0-9l-42-48-6-5 1 8v19c-4-5-8-9-11-15-74-118-184-162-318-159h-12l-28-1c121-30 235-10 338 58 69 46 113 114 146 190-30 11-58 26-81 48-9 8-16 11-17-5l-1-9Z" class="bl"/><path fill="#a0b5ba" stroke-width="0" d="M96 1747c-4-19-10-38-10-58-4-108 22-204 114-272l4-2c2 43 4 85 18 126 1 6-1 9-4 12-81 70-117 155-89 262v4l-3-4-30-68Z"/><path fill="#fe8d10" stroke-width="0" d="M1481 2235c-22-4-38-12-35-39 4-28 5-57 21-81 9-14 21-23 39-23 66 2 112-30 144-85l4-6 2 7c1 52-3 102-48 137l-20-15-7-6 1 10c1 9 5 18 1 29-17 47-50 73-102 72Z"/><path d="M539 1263c-29 10-55 24-79 42-40 25-77 53-102 93-35 60-31 124-15 188l2 13c-3-4-7-6-9-10-59-82-51-165 22-256 94-117 204-148 351-99-5 0-10 2-15 1-53-1-105 7-155 28Z" class="bl"/><path fill="#ff910b" stroke-width="0" d="M539 1263c50-21 102-29 155-28 5 1 10-1 15-1 37 10 72 25 104 47-73 2-136 28-190 78-12-4-17 9-26 12-7 2-11 3-16-4-4-6-11-12-18-14-28-7-43-29-58-51-10-13 4-15 9-20 7-8 19-9 25-19Z"/><path fill="#fa690e" stroke-width="0" d="m830 1243-177-66c61-33 112-79 161-128 3 11 5 23 10 33l69 136c3 6 10 14-3 17l-60 8Z"/><path fill="#fe8b0b" stroke-width="0" d="M1450 1957c-9-45 0-87 21-126 5-8 12-11 20-6l47 26c-26-3-44 13-60 30-4 4-2 7 4 7 28 0 53 10 79 18 10 3 22 13 29 3 8-10-6-19-11-28 14 0 27 2 40-1 21-4 26 7 28 24 3 23-1 46-13 67-52 46-139 31-184-14Z"/><path fill="#8d2909" stroke-width="0" d="M1050 2107c10-22-7-34-19-47-34-38-37-82-31-129 0-4 3-4 6-3 36 17 75 22 113 27 7 0 9 1 5 8l-10 26c-7 17-14 34 17 27 4-1 8 1 6 6-36 56 9 93 33 135l5 13h-15c-30-5-54-20-76-41l-9-6-4-3c-6-6-8-19-21-13Z"/><path fill="#fc730f" stroke-width="0" d="M687 1725c31 32 32 73 33 113 1 33-7 65-20 95-13 18-27 36-45 50-60 47-125 72-202 58-7-1-10-3-6-10 30-23 51-54 67-88l38 17c28 11 58 21 81-1 25-24 35-57 39-92l3-18c2-42 14-82 10-124h2Z"/><path fill="#75230a" stroke-width="0" d="m1982 2065-58 46c-61-41-111-89-115-169-2-28-2-53 33-64 22-7 40-23 56-40 6-7 7-6 11-3-16 29-29 59-20 94 15 57 48 101 93 136Z"/><path fill="#fd6d0d" stroke-width="0" d="M1334 2255c25-7 52-15 74 6 21 20 26 45 17 73-5 17-18 27-34 31-96 26-148 0-176-98h7c40 18 76 10 112-12Z"/><path d="M2078 1619c47-107 40-181-25-253-41-45-98-52-153-63l-55-8-7-2 7-2c70-8 140 3 209 12 94 67 117 187 58 300-14 27-29 55-53 76l-4 2v-3c12-16 14-36 21-54l2-5Z" class="bl"/><path fill="#647f88" stroke-width="0" d="M1723 2223c-1-43-9-85-22-126-4-11 4-17 9-24l12-18c13-20 26-21 40-1l71 97c2 2 5 4 2 8-28 37-58 70-100 90l-12 7v-33Z"/><path fill="#fc790e" stroke-width="0" d="M1424 2187c5 14-4 26-4 39l-8 2c-23-2-46 0-68 9-18 4-35 6-53 4-42-3-81-37-79-70 20-22 45-40 71-54 7 7 12 16 20 22 34 25 81 21 114 48h7Z"/><path fill="#992c08" stroke-width="0" d="M796 1681c68 80 164 98 261 110 80 10 159 7 234-24 12-5 23-13 34-19l10-6c14 3 23-6 34-11l10-4c-1 4-1 8-3 10-7 12-16 22-29 28a525 525 0 0 1-422 32c-52-19-95-51-123-100-3-5-4-11-6-16Z"/><path fill="#802507" stroke-width="0" d="M1284 2117c-27 14-52 32-72 54h-2c3-18 8-29-12-50-45-44-47-107-39-168 1 44 53 79 105 72 20-3 39-8 57-20l5-2-4 4-59 62-3 5h6l91-3c-5 5-11 12-17 16-8 6-2 6 2 8-23-1-40 12-58 22Z"/><path fill="#812509" stroke-width="0" d="m830 1243 60-8c13-3 6-11 3-17l-69-136c-5-10-7-22-10-33l37-34 10-4 1 9c2 24 2 48 10 71 5 14 8 31 31 27 9-2 14 5 17 14 16 44 38 85 62 125 6 11 4 16-9 15-49-5-97-12-143-29Z"/><path fill="#fd730b" stroke-width="0" d="m1543 402-33-27c-30-23-31-25 0-46 72-50 126-114 170-189l3-4 1 5c-23 96-57 188-135 256l-6 5Z"/><path fill="#fe710e" stroke-width="0" d="M1982 2065c-45-35-78-79-93-136-9-35 4-65 20-94 18 39 38 77 62 114l8 8 16 33c17 31 26 33 53 10l4-3-2 4c-21 23-42 46-68 64Z"/><path fill="#afc4c9" stroke-width="0" d="M1611 1023c11 38 9 75-9 111-28 53-73 90-119 127 12-31 26-61 33-94 2-13 6-28 3-39-9-28 3-42 25-56 24-15 42-37 67-49Z"/><path fill="#77220a" stroke-width="0" d="m1033 2161-25-52c-7-26-29-23-48-26l-6-2c-35-18-62-44-85-75-13-18-25-38-43-51l38-27c3-2 5-2 7 1 36 52 88 86 136 124 23 18 14 44 20 67 3 13 4 27 6 41Z"/><path d="M826 1955c18 13 30 33 43 51 23 31 50 57 85 75h-1c-30-18-38 3-46 25-3 9 5 13 4 20-44-30-92-55-124-102-24-35-25-35 12-55l27-14Z" class="ac"/><path fill="#ef5f0e" stroke-width="0" d="M1050 2107c13-6 15 7 21 13 5 29 8 58 15 87 16 69 63 118 116 124l20 40c4 7-2 7-6 7-32 2-59-3-82-32-27-37-59-71-78-113-8-25-18-49-17-76l11-50Z"/><path fill="#a93206" stroke-width="0" d="M1473 676c-2-25-4-49-14-71l-4-6-3 6-58 122c4-15 10-31 13-46 5-20 7-40 11-60 14-77 9-148-61-200-2-1-2-3-3-5l7 3c87 50 124 132 139 226 1 10 5 20 7 30l1 4-13 36-22-39Z"/><path fill="#7b230a" stroke-width="0" d="M447 2031c-4 7-1 9 6 10 77 14 142-11 202-58 18-14 32-32 45-50-14 46-45 79-83 106-33 24-70 41-110 51-14 3-13 8-5 17 5 5 9 11 7 18-50-36-98-76-142-120 11 9 15 1 18-8 10 20 26 35 44 45 11 6 6-10 11-13 1 6 5 1 7 2Z"/><path d="M1202 2331c-53-6-100-55-116-124-7-29-10-58-15-87l4 3c7 8 13 17 21 23 59 48 91 111 106 185Z" class="bl"/><path fill="#fd7a0d" stroke-width="0" d="m1407 304-18-9c5-3 9-8 15-10 50-27 102-53 152-81 28-15 53-33 80-50l4-3-1 5a948 948 0 0 1-170 170c-7 6-14 5-20-2l7-28v-5l-3 1c-13 9-29 13-46 12Z"/><path d="m1425 1964-6-5c-31-52-64-66-123-51-17 5-35 9-53 12-7 1-16-2-23-4l16-9c42-24 78-58 124-76 25 6 39 25 54 44 15 28 16 58 11 89Z" class="bl"/><path fill="#a93207" stroke-width="0" d="M1450 1957c45 45 132 60 184 14-2 31-40 79-72 90-31 11-60 8-82-17-22-24-28-56-30-87Z"/><path fill="#fc740d" stroke-width="0" d="M1450 2359c3-25 1-50-1-74-1-16 14-22 26-28 38 1 70-13 98-36l6-4v4c-2 51-18 93-69 114l-60 24Z"/><path fill="#d74609" stroke-width="0" d="M366 1845c10 28 23 54 50 71 2 2 6 3 9 4 1-3 3-6 2-10l-8-58v-9l7 5 53 55-13 18c-7-5 6-14 0-16-8-1-4 12-10 15-7 4-14 9-22 11-13 3-27 5-41 5-29 0-57 12-86 3l-9-12c3-5-2-7-4-9-9-11-6-17 6-22 26-12 49-27 66-51Z"/><path fill="#fe750a" stroke-width="0" d="m1715 1098 30 18 54 60c3 3 4 10 11 7l29 34c17 20 11 29-13 31-13 2-26 5-38 9-20 9-31 1-38-18-1-22-1-45-16-64-3-27-8-53-19-77Z"/><path fill="#fe850b" stroke-width="0" d="M1694 2212c-1 72-7 62-58 91-2 2-6 4-5-2l3-16-9 13-4 4v-6c8-38 13-76 15-115 1-26 24-37 35-56 3-4 4 2 4 4 12 30 20 61 19 83Z"/><path d="M1109 400c-56 2-61-1-78-53l-65-189-2-9 5 8c11 27 24 53 41 77l12 14v-17c19 43 51 80 68 124 0 13 8 22 13 33 3 8 6 9 11 1 8 9 1 9-5 11Z" class="i"/><path d="m1645 711 3-9 7 7c24 31 39 67 68 95 4 4 1 5-3 6-39 12-76 29-105 59q-4 4-8-10l7-17c26-40 38-83 31-131Z" class="bl"/><path d="M1109 400c6-2 13-2 5-11l-2-6c6 3 5-3 5-5l2-30c-1-13 0-23 17-23 8 6 17-2 26 0 5 5 21-4 16 9-3 9-6 17-1 22 17 15 11 26-3 37-32 22-73 24-104 48-15 12-28 27-42 41-4 4-8 7-14 3 13-21 26-43 45-61 12-11 26-16 42-19 2-1 10 2 8-5Z" class="p"/><path fill="#fea454" stroke-width="0" d="M1284 2117c18-10 35-23 58-22 56 8 79 34 82 92h-7c-33-27-80-23-114-48-8-6-13-15-19-22Z"/><path d="M1648 451c48-82 75-171 90-264l5-33 3 33c4 64-1 128-22 189l-7 10c-16 29-37 53-69 65Z" class="dj"/><path fill="#832709" stroke-width="0" d="M1575 1677c-6 24-49 55-77 56l-10 2 7 5c26 26 54 48 92 52l37 3c-98 28-148-21-178-118-10-34-9-70-10-105 8 39 17 79 41 113 20 30 34 34 65 15 12-7 22-16 33-23Z"/><path fill="#fd700f" stroke-width="0" d="M2020 1751c-4 7-7 15-12 22-30 41-44 87-43 138-20-47-33-95-25-147 2-15 8-20 22-22 20-4 39 4 58 9Z"/><path fill="#6e2108" stroke-width="0" d="m1450 2359 60-24c51-21 67-63 69-114v-4l-6 4c-28 23-60 37-98 36 13-4 8-13 6-22 52 1 85-25 102-72 4-11 0-20-1-29l-1-10 7 6 20 15c-18 28-21 59-20 91 2 69-13 92-80 112-19 6-37 16-58 11Z"/><path fill="#902b08" stroke-width="0" d="m2078 1619-2 5c-13 1-17 13-26 19l-78 54-6 2 1-6 20-84 2 6 3-5v-2l10-35 7 37v8l2 33 19-27c26-39 28-80 16-124v-7l3 6c15 35 23 72 27 110l2 10Z"/><path d="M1473 1071c-82-7-145-49-198-109l-3-8 9 3c39 27 77 54 119 75 32 16 65 19 100 10 15-4 29-10 45-6l12 4c-3 3-6 7-10 9-22 15-47 21-74 22Z" class="k"/><path d="M1409 1294c3-56 12-108 50-150 7-8 17-20 24-16 7 3 5 18 3 29-7 51-40 91-62 136l-3 4-10 19-2-22Z" class="bl"/><path fill="#fa710b" stroke-width="0" d="M1643 589c10-7 12-12-1-22-30 12-58 27-81 49-9 8-16 11-17-5l-3 13h-5l-29 89 71 96 40-47 15-31 12-36 6-52-8-54Z"/><path fill="#a53406" stroke-width="0" d="M307 1939c29 9 57-3 86-3 14 0 28-2 41-5 8-2 15-7 22-11 6-3 2-16 10-15 6 2-7 11 0 16-23 29-51 54-81 76-3 9-7 17-18 8l-60-66Z"/><path fill="#842708" stroke-width="0" d="M1210 2171h2c-2 33 37 67 79 70 18 2 35 0 53-4-2 7-13 9-10 18-36 22-72 30-112 12h-7c-15-31-19-63-5-96Z"/><path fill="#f67b16" stroke-width="0" d="m2303 1964 76-33c4-2 9-2 13-2l-6 10c-105 58-201 128-297 198l-8 5 6-8c61-61 131-110 202-159l14-11Z"/><path fill="#fb6f16" stroke-width="0" d="m49 1937-7-12 14 4 47 21c81 47 153 104 214 175l6 9-8-7c-82-70-174-127-263-189l-3-1Z"/><path fill="#f27a1d" stroke-width="0" d="M687 1725h-2c-6-8-14-10-23-10-50-1-88 25-107 73-2 5-6 9-9 13l-7-28-4-10-3 10-6 47c-2-29-19-51-27-78l-4-20 22 1 10 2c21 7 41 6 61 0l32-14c26-12 48-7 67 14Z"/><path fill="#a1b7ba" stroke-width="0" d="M520 657c36-67 81-127 123-191 4-6 6-13 9-19l-19 4-7 1 6-4c40-17 50-59 74-89l-2-2c20-13 32-8 34 15 5 40 19 78 35 115 2 4 5 8-2 11-93 40-176 93-251 159Z"/><path d="m526 1820 6-47 3-10 4 9 7 29-4 42c-4 35-16 68-28 100-16 34-37 65-67 88-2-1-6 4-7-2 40-65 80-130 86-209Z" class="cm"/><path fill="#f65c0d" stroke-width="0" d="M1648 451c32-12 53-36 69-65l7-10c-7 57-34 104-73 145-5 5-7-2-9-4-20-20-20-39-2-59l8-7Z"/><path fill="#aabec3" stroke-width="0" d="M1104 1033c-21 4-35 19-51 30l-29 23 7-38c5-19 4-41 19-57 4 7 7 0 11-1 11-2 20-15 32 4 6 10 23 6 35 7l6 1-4 3c-12 7-19 18-26 28Z"/><path d="M804 343c-22-89-6-172 48-246 4-6 10-11 17-9s3 10 3 16c3 92 9 184 54 268 16 30 36 58 57 84-22-6-39-21-56-36-23-28-41-59-57-91-4-7-7-20-20-16-10-38-11-77-9-115v-5l-2 2c-11 46-12 92-7 138-10 2-16 15-28 10Z" class="bl"/><path d="m851 1015-37 34c-49 49-100 95-161 128l-12-3 8-9c60-60 125-113 202-150Z" class="cm"/><path fill="#ca4509" stroke-width="0" d="M358 1398c25-40 62-68 102-93-2 19-14 34-24 49-7 13-16 25-24 37-9-1-11 7-15 12l-39 49-5 5v-6l5-53Z"/><path d="m1473 676 22 39c23 47 64 81 85 128l23 48c1 2 4 7-3 6l-82-113-46-60c-10-15-8-32 1-48Z" class="cw"/><path fill="#d6dbdd" stroke-width="0" d="M2117 1751c19 8 43 53 38 74-5 22-12 43-19 64-1 4-4 7-6 11-1-4-4-8-4-12l-16-112c-1-3-1-6-5-6-5-1-6 3-6 6l1 51c0 2 3 8-4 6 0-16 4-33 1-48-4-20 20-19 20-34Z"/><path fill="#7f2507" stroke-width="0" d="M588 1725c-20 6-40 7-61 0l18 1-15-11c-56-36-103-81-121-148-3-9-4-19-5-28 29 61 65 115 124 151 12 8 25 12 39 13l6 2c-6 15-7 26 15 20Z"/><path fill="#e06213" stroke-width="0" d="M841 1473c-9-1-13 6-19 10-27 25-39 57-50 90-4 11-5 23-7 35l-3 8-2-9c3-85 33-155 114-195 12-6 23-14 35-21-26 25-55 47-68 82Z"/><path fill="#fc6f10" stroke-width="0" d="M927 420c17 15 34 30 56 36l13 13c-6 3-11 7-17 8-44 12-76-9-97-63 16-1 31 1 45 6Z"/><path fill="#fffffb" stroke-width="0" d="M1579 1881c5 9 19 18 11 28-7 10-19 0-29-3-26-8-51-18-79-18-6 0-8-3-4-7 16-17 34-33 60-30l41 30Z"/><path d="M1562 1023c-6-2-18 3-19-9-1-9 10-8 16-12 12-6 32-13 30-26-5-27 20-30 29-45 1-2 3-5 5 0 10 37-6 95-61 92Z" class="k"/><path fill="#adc1c9" stroke-width="0" d="M1645 711c7 48-5 91-31 131l-7 17c-13-29-19-56 7-85 16-16 21-42 31-63Z"/><path d="M1090 355c-17-44-49-81-68-124l-4-13 11 10c40 45 80 90 83 155l-1 2c-12-7-13-21-21-30Z" class="cw"/><path fill="#9e3009" stroke-width="0" d="M850 494c20 9 30 29 43 46 5 7-3 5-6 5-43 0-77-29-91-75 16 12 32 24 54 24Z"/><path fill="#fefbf1" stroke-width="0" d="M841 1473c13-35 42-57 68-82 29-18 61-30 94-38-22 13-46 26-67 41-38 25-67 60-98 93l3-14Z"/><path fill="#fbb376" stroke-width="0" d="M927 420c-14-5-29-7-45-6-15-33-26-66-32-101 13-4 16 9 20 16 16 32 34 63 57 91Z"/><path fill="#98acb2" stroke-width="0" d="M1068 962a91 91 0 0 0-63-41l-16-4c39-11 78-5 117-5 5 0 0 4-1 5l-37 45Z"/><path fill="#a53608" stroke-width="0" d="m727 1637-10-46c-4-19-2-39 2-59l4-12v55c12-7 16-21 23-32l6-8c-5 31-12 62-12 93 0 9-8 6-13 9Z"/><path fill="#a4b8bf" stroke-width="0" d="M804 343c12 5 18-8 28-10l12 61-2 11-12-4c-26-11-20-37-26-58Z"/><path d="M156 881c-39 73-73 148-95 228-10 35-17 71-25 107-7 57-13 114-8 171l172 30 4-2 2-10c-6-142 21-283 79-412 54-129 135-239 235-336 36-67 81-127 123-191 4-6 6-13 9-19l-19 4-7 1 6-4c40-17 50-59 74-89-114 51-219 122-310 210-97 92-173 199-240 312Zm1646 474c-45-25-94-36-145-36l-30 8 17-27 2-3c35-58 57-120 49-189l-4-24 24 14 30 18 14 5-1-7 8 7 1-2-37-52c-30-45-46-98-81-139l-7-6v8c-2 34-1 68-31 93 11 38 9 75-9 111-28 53-73 90-119 127-23 39-42 79-52 124-13 63-2 125 5 187 8 39 17 79 41 113 20 30 34 34 65 15 12-7 22-16 33-23 44-41 79-87 99-144 7-17 11-35 10-54-2-48-43-75-87-57-24 9-44 24-59 46l-4 4 1-5c12-33 26-65 51-91 35-35 64-43 109-22 57 26 109 58 157 99 38 23 77 46 100 87 1 1 1 5 4 1-27-82-78-144-154-186Z" class="bl"/><path fill="#ae4211" stroke-width="0" d="M1857 1465c-2-3-8-6-5-12 38 23 77 46 100 87 1 1 1 5 4 1l6 30c-5-7-9-15-15-22-23-32-52-58-83-83l-7-1Z"/><path fill="#fbfaf9" stroke-width="0" d="M850 494c-22 0-38-12-54-24-9-22-14-45-17-68l-1-8 4 7c14 37 34 70 68 93Z"/><path fill="#404855" stroke-width="0" d="M894 945c-5-19 9-32 35-34l8 2-3 6c-14 21-30 41-33 67l-2 3-2-4-3-40Z"/><path fill="#681f12" stroke-width="0" d="m1746 1273-4 2-19 6-27 6 8-24c3-12 7-12 16-5 7 6 17 10 26 15Z"/><path fill="#822b11" stroke-width="0" d="M1710 1984c-5 26-19 48-34 68l-3 1v-3l28-69c0-2 4-3 6-5l3 8Z"/><path fill="#561f07" stroke-width="0" d="m1544 611-11 40c-14 4-16 19-25 28l-1-4c10-23 19-45 30-67 1-2 0-9 6-6l1 9Z"/><path fill="#5b2324" stroke-width="0" d="m1839 1217-29-34-51-62-1-7 8 7 64 74 9 22Z"/><path fill="#b12e09" stroke-width="0" d="M1407 304c17 0 33-2 46-12l3-1v5l-7 28-42-20Z"/><path fill="#f3ca9b" stroke-width="0" d="m1531 691-5-1 3-4c12-3 24-6 26-23 0-3 11-11 14-7 4 7 2 19-5 25-9 7-19 10-33 10Z"/><path fill="#831e10" stroke-width="0" d="M1414 1875c-15-19-29-38-54-44 11-9 21-3 29 4 13 10 26 21 25 40Z"/><path fill="#d2dfe9" stroke-width="0" d="M1492 966c-13-2-20-12-26-22l4-3 40 18c-4 6-11 6-18 7Z"/><path fill="#9297a3" stroke-width="0" d="M1604 919c-19 0-40-5-57 1-15 6-26 4-39 2l-7-4 7-2 48-5-8 2-12 2 13 2 55 2Z"/><path fill="#ae300d" stroke-width="0" d="M1734 1175c15 19 15 42 16 64-15-19-14-42-16-64Z"/><path fill="#eeeff1" stroke-width="0" d="m1604 919-55-2-13-2 12-2 8-2 47 2c5 0 11 1 14 6h-13Z"/><path fill="#a77d8a" stroke-width="0" d="m1830 1195-64-74 1-2c24 24 46 47 63 76Z"/><path d="M1162 325c-9-2-18 6-26 0l22-5 27 1-23 4Z" class="dq"/><path fill="#696667" stroke-width="0" d="m1348 1441-27-24 2-1 26 21-1 4Z"/><path fill="#0a0d1a" stroke-width="0" d="m1323 1416-2 1c-44-36-98-58-147-86s-79-71-94-126v-4l3 1c49 63 121 99 179 153 21 19 41 40 61 61Z"/><path fill="#e4e5e3" stroke-width="0" d="M28 1387c9-13 4-28 7-42 2-8 2-17 3-25 6-35 7-36 40-15 10 6 14 1 22-1 23-6 47-6 69 1 26 6 19 30 22 48 4 21 6 43 9 64-92 68-118 164-114 272 0 20 6 39 10 58-43-116-64-236-68-360Z"/><path fill="#ef862a" stroke-width="0" d="M1201 1625v1l-4-1c-38-19-63-51-80-88v-4l2 2c23 32 51 61 80 87l2 2v1Z"/><path fill="#f4d0ae" stroke-width="0" d="m1759 1121 51 62c-7 3-8-4-11-7l-54-60 14 5Z"/><path fill="#c04605" stroke-width="0" d="m1800 1439 5 5c32 43 61 88 75 141v8l-4-6c-18-51-43-98-74-142l-3-6h1Z"/><path d="m1141 567-15 3-31 2c-1 0-7 5-5-3l16-10 43-29c90-63 194-23 220 84 0 18-4 35-21 45-8-1-7-10-12-13l-12-21-8-11c-48-54-108-61-175-47Z" class="dj"/><path d="m1162 325 23-4h13c10 26 13 51-15 68l-9 4c14-11 20-22 3-37-5-5-2-13 1-22 5-13-11-4-16-9Z" class="i"/><path d="m1106 559-16 10c-4-4-1-6 2-8 4-2 8-8 14-2Z" class="p"/><path fill="#090d1b" stroke-width="0" d="m1228 779 65 4c19 10 38 20 53 35-13 39-21 78-19 119 1 2-1 4-2 6l-5-7c-7-26-13-53-22-79-17-47-58-75-94-68v-1c5-10 16-5 24-9Z"/><path fill="#0c0b13" stroke-width="0" d="M1204 788v1c-26 11-54 12-81 18-6 2-10-3-14-7-24-25-50-48-82-62l42 6c11 4 22 8 32 14 32 19 64 36 103 30Z"/><path fill="#67200f" stroke-width="0" d="M1346 818c-15-15-34-25-53-35 25 2 45 9 55 34l-2 1Z"/><path fill="#6f6c74" stroke-width="0" d="M1407 991v1l-4-1-52-27-3-3 3-1 55 29 1 2Z"/><path fill="#a83307" stroke-width="0" d="M366 1845c-17 24-40 39-66 51-12 5-15 11-6 22 2 2 7 4 4 9l-44-56-6-5v7l3 31c0 1 2 7-3 2l-1-11-45-124-8-27-1 26c-2-17-2-33 3-50 34 63 91 81 158 77 11-1 12 2 12 11v37Z"/><path fill="#0e060a" stroke-width="0" d="m193 1770 1-26 8 27 45 124 1 11c-30-41-49-86-55-136Z"/><path d="M1141 567c67-14 127-7 175 47l8 11c-17 27-28-2-38-6-30-15-56-36-93-39-17-2-32-17-52-13Z" class="dq"/><path fill="#bd390a" stroke-width="0" d="M1261 701c39 9 72 25 94 61l4 3 1-4 2 8-15 36c-28-34-62-65-86-104Z"/><path fill="#9a2707" stroke-width="0" d="M1204 788c-39 6-71-11-103-30-10-6-21-10-32-14l10-4-8-6-28-11-11-5h14c19 4 38 12 54 25 37 30 81 38 128 36-8 4-19-1-24 9Z"/><path d="m1301 645-39-20c12-13 20 2 29 6 3 1 20 1 10 14Zm59 21-5-4 17-12 5 4c-2 9-10 8-17 12Zm-13 139 15-36c6 15-9 23-11 36 0 2-2 5-4 0Zm-11-159c5 3 4 12 12 13-16 6-14-4-12-13Z" class="dq"/><path d="M960 2083c19 3 41 0 48 26-13-15-33-16-48-26Z" class="ac"/><path fill="#fec38a" stroke-width="0" d="m542 1843 4-42c3-4 7-8 9-13 19-48 57-74 107-73 9 0 17 2 23 10 4 42-8 82-10 124l-3 18c-5 3-10 7-15 8-40 7-72-13-101-36-12-10-12-4-14 4Z"/><path fill="#fe9c46" stroke-width="0" d="M542 1843c2-8 2-14 14-4 29 23 61 43 101 36 5-1 10-5 15-8-4 35-14 68-39 92-23 22-53 12-81 1l-38-17c12-32 24-65 28-100Z"/><path d="M1090 355c8 9 9 23 21 30l3 4c-5 8-8 7-11-1-5-11-13-20-13-33Z" class="dq"/><g id="b"><path fill="#35150b" stroke-width="0" d="M1518 673c-5 5-6 12-13 14l1-6c1-2 2-4 1-6 6-13 11-27 19-40 9-4 7 4 8 9l-3 5c-2 2-5 3-1 6-7 5-9 12-12 18Z"/><path d="m1526 690 3-4c12-3 24-6 26-23 0-3 11-11 14-7 4 7 2 19-5 25-9 7-19 10-32 10l-6-1Z" class="da"/><path id="c" fill="#f9f6e3" stroke-width="0" d="M1554 672c5-5 9-2 14 1 0 6-5 8-9 10-9 0-4-7-5-11Z"/></g><path d="M2435 1470c34-190-3-370-82-544-67-146-155-277-270-390a979 979 0 0 0-283-200c-25-12-18-28-18-45l2-14v-62c-5-65-18-129-47-189-7-9-12-20-23-25-7 0-9 5-12 9l-40 57a371 371 0 0 1-221 158c-34 10-71 13-99 30-36 23-69 14-104 11-30-2-61-3-90 6-31 9-38-18-52-33-61-60-107-132-164-196l-26-23a97 97 0 0 0-78-14l-16 20-12 25-48 134c-11 41-15 82-18 124 0 2-4 5-6 6-177 78-329 191-454 339l-2 2c-58 74-110 153-154 237a953 953 0 0 0-106 333s-6 43-9 80a980 980 0 0 0 123 564c24 43 25 43-23 80 81 47 153 105 214 175l6 9-8-7c-82-70-174-127-263-189l-3-1c18 37 42 70 65 104 79 98 166 190 265 268 75 58 154 109 241 147-26-50-57-96-87-142-48-75-99-148-144-225-17-29-48-45-71-69-27-28-56-54-76-88-41-46-81-93-87-158-7-70 58-179 124-204 3-1 4-2 6 2 1 3 3 6-1 9l-17 18c39 36 81 68 128 94l52 31c69 43 82 95 32 179l-13 18c-23 29-51 54-81 76 10 20 26 35 44 45 11 6 6-10 11-13 40-65 80-130 86-209-2-29-19-51-27-78l-4-20 22 1 10 2 18 1-15-11c-56-36-103-81-121-148-3-9-4-19-5-28-11-38-12-77-3-116l11-32c-9-1-11 7-15 12l-39 49-5 5v-6l5-53c-35 61-31 124-15 188l2 13c-3-4-7-6-9-10-59-82-51-165 22-256 94-117 204-148 351-99 37 10 72 25 104 47 107 3 213 17 318 37h3c-1-1-2-3-4-3-95-49-143-134-177-229-9-23-13-47-10-72v-5l-5 4-35 55-4 5-1-4c7-61 27-127 91-152 39-11 78-5 117-5 5 0 0 4-1 6l-37 44-18 29c4 7 7 0 11-1 11-2 20-15 32 4 6 10 23 6 35 7l6 1-4 3c-12 7-19 18-26 28-4 69 32 121 73 172l3 2-1-4c-15-33-28-65-31-101 0-3-4-9 4-5 99 40 175 120 212 220 10 24 14 49 14 75l-1 7-4-7c-23-67-66-119-122-161l-6-3 2 5c46 62 82 129 102 204l-1 4c56 71 74 147 38 233-11 26-28 49-51 68 14 3 23-6 34-11l10-4c-1 4-1 8-3 11-7 11-16 21-29 27a525 525 0 0 1-422 32c-52-19-95-51-123-100l-6-16c-13-24-4-50-5-75-2-44 11-84 31-123-27 25-39 57-50 90-4 11-5 23-7 35l-3 8-2-9c3-85 33-155 114-195 12-6 23-14 35-21 29-18 61-30 95-38l50-13-29-5c-76-2-148 9-212 54l-18 18c7-4 13-8 20-10 10-4 21-6 31-9l-21 19c-10 9-19 19-25 32l-1 4 4-3 43-31 6-3-4 5c-44 32-74 75-96 124-5 31-12 62-12 93 0 9-8 6-13 9-58 23-105-9-120-80-6-31-4-62 2-93-32 69-35 138-3 208 4 7-2 9-5 12l-27 21c-7 15-8 26 14 20l32-14c26-12 48-7 67 14 31 32 32 73 33 113 1 33-7 65-20 95-14 46-45 79-83 106-33 24-70 41-110 51-14 3-13 8-5 16 5 6 9 12 7 19 250 205 531 318 859 280 167-20 318-83 456-177 30-21 61-28 96-23l56-35 8-3-2 8c-30 71-67 139-103 207l-39 70 26-13c200-120 368-275 500-468l20-32c-105 58-201 128-297 198l-8 5 6-8c61-61 131-110 202-159l14-11c-26-17-33-34-18-65 67-137 123-278 150-429ZM1738 187l5-33 3 33c4 64-1 128-22 189-7 57-34 104-73 145-5 5-7-2-9-4-20-20-20-39-2-59l8-7c48-82 75-171 90-264Zm-230 735-7-4 7-2 48-5 47 2c5 0 11 1 14 6h-13c-19 0-40-5-57 1-15 6-26 5-39 2Zm2 37c-4 6-11 6-18 7-13-2-20-12-26-22l4-3 40 18Zm49 43c12-6 32-13 30-26-5-27 20-30 29-45 1-2 3-5 5 0 10 37-6 95-61 92-6-2-18 3-19-9-1-9 10-8 16-12Zm56-133q-4 4-8-10c-13-29-19-56 7-85 16-16 21-42 31-63l3-9 7 7c24 31 39 67 68 95 4 4 1 5-3 6-39 12-76 29-105 59Zm-87-146c3-7 14-13 33-25 12-6 21-14 28-25l16-25c8-13 19-29 32-28h2c5 4 4 25 6 37-3 38-9 75-34 106-22 26-40 26-61 1-19-23-27-32-22-41Zm-2-33 3-4c12-3 24-6 26-23 0-3 11-11 14-7 4 7 2 19-5 25-9 7-19 10-33 10l-5-1Zm123 180c39-21 81-39 123-52l8-5-7-4c-54-26-72-77-93-126l-15-33c-11-19-17-34 8-49 16-8 2-24 1-37-1-4-2-9 0-11 4-4 8 0 12 2a906 906 0 0 1 466 655c8 44 9 89 11 137v11l-9-12c-49-75-114-122-208-120-17 0-34 2-51 6-12 3-17 1-21-10-27-59-69-108-109-159-45-58-73-128-125-182-5-6 5-9 9-11Zm31-730 3-3v4c-23 96-56 188-134 256l-6 5-33-27c-30-23-31-24 0-46 72-50 126-114 170-189Zm-276 145c50-27 102-53 152-81 28-15 53-33 80-50l4-3-1 5a948 948 0 0 1-170 170c-7 6-14 5-20-2l-42-20-18-9c5-3 9-8 15-10ZM852 97c4-6 10-11 17-9s3 10 3 16c3 92 9 184 54 268 16 30 36 58 57 84l13 13c-6 3-11 7-17 8-44 12-76-9-97-63-15-33-26-66-32-101-10-38-11-77-9-115v-5l-2 2c-11 46-12 92-7 138l12 62c1 3-1 7-2 10l-12-3c-26-12-20-38-26-59-22-89-6-172 48-246Zm-70 304c14 37 34 70 68 93 20 9 30 29 43 46 5 7-3 5-6 5-43 0-77-29-91-75-9-22-14-45-17-68l-1-8 4 7ZM206 1405l-2 10c2 43 4 85 18 126 1 6-1 9-4 12-81 70-117 155-89 262v4l-3-4-30-68c-61-170-80-352-58-532a974 974 0 0 1 118-334c67-113 143-220 240-312 91-87 192-160 308-212 20-13 32-8 34 15 5 40 19 78 35 115 2 4 5 8-2 11-93 40-176 93-251 159-100 97-181 207-235 336a893 893 0 0 0-79 412Zm380-239c-12 12-28 3-42 4-130 12-215 84-276 194l-3 5-1-4c2-119 28-232 74-341l13-27 49-96c36-60 78-114 128-163 39-44 85-80 133-113 38-27 78-49 120-71 7-3 10-2 14 4 21 28 47 51 75 71 7 5 5 8 0 13l-90 93-6 11 13 3 9 1-4 10-64 79c-4 5-4 8 0 12 25 28 59 26 91 28l69 2 6 2-2 2c-23 19-21 46-22 72 0 9-3 15-11 20-70 47-148 83-215 136-21 16-40 34-58 53Zm317-48c9-2 14 5 17 14 16 44 38 85 62 125 6 11 4 16-9 15-49-5-97-12-143-29l-177-66-12-3 8-9c60-60 125-113 202-150l10-4 1 9c2 24 2 48 10 71 5 14 8 31 31 27Zm31-199c-14 21-30 41-33 67l-2 3-2-4-3-40c-5-19 9-32 35-34l8 2-3 6Zm330 77c-52-13-100-38-155-39l-3-2 4-4c20-17 43-29 69-36 7-1 8-1 3-7-14-15-29-30-34-51l-1-3-3 3c-10 35-38 31-64 29-51-4-96-30-145-43-55-15-110-10-165 1h-8l3-3c54-57 95-123 136-189 19-31 36-65 72-81-38-5-72-27-92-59-7-12-11-25-12-39 9 5 18 11 27 14 36 13 73 10 109 4l8-5c14-22 27-44 46-62 12-12 26-16 42-19 2-1 10 2 8-6-56 3-61 0-78-52l-65-189-2-9 5 7c11 28 24 53 41 78l12 13v-16l-4-13 11 10c39 45 80 90 83 155 6 3 5-3 5-6l2-29c-1-12 0-22 13-23l27-5c121-30 234-10 337 58 69 45 113 114 146 190 14 9 10 16-3 24l-9 5c-32 19-67 31-97 54-14 4-16 19-25 28l-13 36c23 47 64 81 85 128l23 48c1 2 3 6-3 6h-3c-42 0-85-6-125 15 4 5 3 10-2 13-15 8-12 19-5 32 13 22 27 43 54 50l4 3-5 4c-28 13-57 19-87 10-55-15-103-42-137-90-13-18-31-28-50-36-8-3-11-1-11 8 1 32 15 58 35 81l6 9h-10Zm11-34-3-8 9 3c39 27 77 54 119 75 32 16 65 19 100 10 15-4 29-10 45-6l12 4c-3 3-6 7-10 9-22 15-47 21-74 22-82-7-145-49-198-109Zm211 195c-7 51-40 91-62 136l-3 4-10 19-2-22c3-56 12-108 50-150 7-8 17-20 24-16 7 3 5 18 3 29ZM870 2304c-110-43-211-102-303-176-3-3-6-4 0-7 37-17 69-40 98-67 4-4 7-6 11-1 42 48 93 83 146 117 9 6 14 13 15 24 3 39 16 74 36 106l3 5-6-1Zm346 74c-32 2-59-3-82-32-27-37-59-71-78-113-5 6-1 11 1 16l35 95c3 7 3 10-5 10-39-2-77-11-111-29-39-20-36-55-33-90 2-40-1-79-32-109-44-30-92-55-124-102-24-35-25-35 12-55l27-14 38-27c3-2 5-2 7 1 36 52 88 86 136 124 23 18 14 44 20 67l6 41q3 6 5 3l1-7 11-50c10-22-7-34-19-47-34-38-37-82-31-129 0-4 3-4 6-3 36 17 75 22 113 27 7 0 9 1 5 8l-10 26c-7 17-14 34 17 27 4-1 8 1 6 6-36 56 9 93 33 135l5 13h-15c-30-5-54-20-76-41l-9-6c7 8 13 17 21 23 59 48 91 111 106 185l20 40c4 7-1 7-6 7Zm209-44c-5 17-18 27-34 31-96 26-148 0-176-98-15-31-19-63-5-96 3-18 8-29-12-50-45-44-47-107-39-168 11-40 46-40 77-46 42-24 78-58 124-76 11-9 21-3 29 4 13 10 26 21 25 40 15 28 16 58 11 89-6 46-29 82-68 107-5 6-11 12-17 16-8 6-2 6 2 8 56 8 79 34 82 92 5 14-4 26-4 39l-8 2c-23-2-46 0-68 9-2 7-13 9-10 18 25-7 52-15 74 6 21 20 26 45 17 73Zm6-949c10-45 29-85 52-124 12-31 26-61 33-94 2-13 6-28 3-39-9-28 3-42 25-56 24-15 42-37 67-49 30-25 29-59 31-93v-8l7 6c35 41 51 94 81 139l37 52c24 24 46 47 63 76l9 22c17 20 11 29-13 31-13 2-26 5-38 9-20 9-31 1-38-18-15-19-14-42-16-64-3-26-8-53-19-77l-24-14 4 24c8 69-14 131-49 189l-2 3-17 27 30-8c107-23 213-65 326-47 26 4 50 15 72 31 93 67 116 187 57 300-14 27-29 55-53 76l-4 2v-3c12-16 14-36 21-54-13 1-17 13-26 19l-78 54-6 2 1-6 20-84c3-106-55-175-137-230-15-10-30-21-48-24 76 42 127 104 154 186l6 30c-5-7-9-15-15-22-23-32-52-58-83-83l-7-1c10 14 21 27 30 41 52 75 37 159-38 212-68 47-146 63-225 77-98 28-148-21-178-117-10-34-9-71-10-106-7-62-18-124-5-187Zm315-112-4 2-19 6-27 6 8-24c3-12 7-12 16-5 7 6 17 10 26 15Zm-36 711c-5 26-19 48-34 68l-3 1v-3l28-69c0-2 4-3 6-5l3 8Zm-76-13c-2 31-40 79-72 90-31 11-60 8-82-17-22-24-28-56-30-87-9-45 0-86 21-126 5-8 12-11 20-6l47 26 41 30c14 0 27 2 40-1 21-4 26 7 28 24 3 23-1 46-13 67Zm-26 174c-18 28-21 59-20 91 2 69-13 92-80 112-19 6-37 16-58 11 3-25 1-50-1-74-1-16 14-22 26-28 13-4 8-13 6-22-22-4-38-12-35-39 4-28 5-57 21-81 9-14 21-23 39-23 66 2 112-30 144-85l4-6 2 7c1 52-3 102-48 137Zm86 67c-1 72-7 62-58 91-2 2-6 4-5-2l3-16-9 13-4 4v-6c8-38 13-76 15-115 1-26 24-37 35-56 3-4 4 2 4 4 12 30 20 61 19 83Zm141-53c-28 37-58 70-100 90l-12 7v-33c-1-43-9-85-22-126-4-11 4-17 9-24l12-18c13-20 26-21 40-1l71 97c2 2 5 4 2 8Zm345-222-2 2 1-4 11-58v-5l-4 3c-65 126-175 209-286 291l-26 19 14-31c8-18 20-32 36-43-61-41-111-89-115-169-2-28-2-53 33-64 22-7 40-23 56-40 6-7 7-6 11-3 18 39 38 77 62 114l8 8-14-46c-20-47-33-95-25-147 2-15 8-20 22-22 20-4 39 4 58 9 6-4 8 2 11 4 27 22 46 49 65 78 0-16 4-33 1-48-4-19 20-19 20-34-3-14-11-25-18-37-6-12 11-18 15-28 3-6 7 1 8 3 41 38 83 75 92 135 7 43-16 77-34 113Zm76-31c-1 2 0 10-5 7-4-1-8-6-7-12 30-104-9-183-91-245-3-2-4-3-2-7 71-123 81-258 66-396a957 957 0 0 0-502-750c-3-1-9-1-4-8 26-40 45-84 59-130 2-7 5-9 12-5 145 68 264 168 365 291 119 146 206 309 251 493 15 60 21 121 21 183 1 147-44 283-96 418l-67 161Z" class="al"/><g id="d"><path d="m1301 645-39-20c-27-6-55-10-78-24a80 80 0 0 0-74-4l-31 11-9 4 11 1c44 0 87 5 118 40 18 21 38 37 62 49 39 8 72 24 94 60l4 3 1-4c-7-45-19-87-59-116Z" class="al"/><path d="m1283 690 6-5c-1-1-2-3-4-3-22-1-38-12-47-33-2-6-9-7-13-5-6 2-1 7 0 10 9 27 33 31 58 36Z" class="da"/><path fill="#561413" stroke-width="0" d="m1272 661-1-4-7-4 2 1c5 8 2 15-7 17h-1l-1 1-1 1 4 2 2 1v1-1l18 5 1 1h5v1h4v-2c-16-4-17-4-18-20Z"/><path fill="#804135" stroke-width="0" d="m1249 662-1-1-2 2c2 5 5 8 10 10l2-2-1-1-6-6"/><path fill="#faf6f3" stroke-width="0" d="m1250 663 1 1 6 6 2 1c9-3 12-9 7-17l-2-2-8-4-4 2-2 2-2 4 1 6"/><path fill="#a33f2c" stroke-width="0" d="M1239 652c-10-4-11-4-13 3-4-3-5-7-5-12 0-2 3-2 5-1 5 2 13 0 13 10Z"/></g></svg>